<?xml version="1.0" standalone="no"?>
<!DOCTYPE svg PUBLIC "-//W3C//DTD SVG 1.1//EN" "http://www.w3.org/Graphics/SVG/1.1/DTD/svg11.dtd" >
<svg xmlns="http://www.w3.org/2000/svg">
<metadata></metadata>
<defs>
<font id="akzidenz_grotesk_be_xbdXBd" horiz-adv-x="1067" >
<font-face units-per-em="2048" ascent="1638" descent="-410" />
<missing-glyph horiz-adv-x="555" />
<glyph horiz-adv-x="0" />
<glyph unicode="&#xd;" horiz-adv-x="0" />
<glyph unicode=" "  horiz-adv-x="555" />
<glyph unicode="&#x09;" horiz-adv-x="555" />
<glyph unicode="&#xa0;" horiz-adv-x="555" />
<glyph unicode="!" horiz-adv-x="598" d="M158 0v313h360v-313h-360zM158 1090v358h360v-358l-55 -625h-252z" />
<glyph unicode="&#x22;" horiz-adv-x="811" d="M45 1391q0 81 52 112t104 31q54 0 95.5 -32.5t41.5 -100.5q0 -13 -4 -29l-109 -536h-63l-111 512q-6 21 -6 43zM473 1391q0 79 50.5 111t103.5 32q57 0 98 -33t41 -98q0 -11 -4 -31l-109 -536h-63l-113 512q-4 28 -4 43z" />
<glyph unicode="#" horiz-adv-x="1194" d="M0 381v254h229l27 194h-205v254h240l51 361h254l-49 -361h203l49 361h256l-49 -361h188v-254h-223l-27 -194h201v-254h-238l-53 -381h-258l55 381h-202l-54 -381h-254l52 381h-193zM483 635h203l27 194h-201z" />
<glyph unicode="$" d="M25 467h405q0 -131 4 -150q18 -65 92 -65q63 0 80 34t17 85q0 42 -14.5 68.5t-63.5 65t-158 113.5q-123 87 -173 126.5t-87 86t-51.5 99.5t-14.5 139q0 148 54.5 230.5t127.5 113t181 49.5v250h223v-250q70 -8 146.5 -34.5t136.5 -90.5q57 -60 70.5 -129.5t13.5 -218.5 h-379q0 111 -8 150q-7 24 -33 37.5t-55 13.5q-90 0 -90 -92q0 -30 11.5 -50.5t50.5 -51.5t138 -101q176 -123 252.5 -192t103.5 -133t27 -169q0 -86 -11 -146t-49.5 -116.5t-115.5 -96t-209 -58.5v-297h-223v297q-71 9 -117 18t-97 31.5t-91 62.5q-63 61 -78.5 140 t-15.5 231z" />
<glyph unicode="%" horiz-adv-x="1706" d="M53 838v383q0 67 16 118.5t87 91t213 39.5q199 0 254 -73.5t55 -184.5v-405q0 -73 -16 -128.5t-86.5 -98.5t-215.5 -43q-144 0 -210.5 40.5t-81.5 100t-15 160.5zM299 772q0 -39 12 -61.5t54 -22.5q46 0 57.5 23t11.5 61v475q0 72 -69 72q-42 0 -54 -20t-12 -52v-475z M541 0l440 1446h178l-440 -1446h-178zM1024 287v383q0 67 16 118t86 91.5t213 40.5q141 0 209.5 -41t84.5 -92t18 -125v-408q0 -72 -16 -127t-87 -98t-217 -43q-141 0 -209 40.5t-83 100.5t-15 160zM1270 219q0 -38 12 -60t55 -22q47 0 58.5 22.5t11.5 59.5v475q0 74 -70 74 q-43 0 -55 -21t-12 -53v-475z" />
<glyph unicode="&#x26;" horiz-adv-x="1237" d="M25 356q0 154 89 251t244 194q-11 21 -20 38t-15 27.5t-24 42.5q-42 74 -58 116t-16 99q0 66 34 138.5t119.5 125t231.5 52.5q127 0 219 -40.5t141.5 -113t49.5 -166.5q0 -86 -40.5 -157.5t-96.5 -122t-121 -97.5l102 -178q18 74 25 162h285q-5 -133 -32.5 -243.5 t-101.5 -231.5q23 -28 42 -37.5t57 -9.5h88v-205h-271q-102 0 -165 33q-68 -28 -119 -40.5t-146 -12.5q-171 0 -336 68t-165 308zM387 389q0 -54 44.5 -106t105.5 -52q45 0 118 43l-151 269q-49 -30 -83 -65t-34 -89zM557 1130q0 -73 74 -151q51 34 85 68t34 81 q0 42 -28 67.5t-71 25.5q-45 0 -69.5 -24.5t-24.5 -66.5z" />
<glyph unicode="'" horiz-adv-x="426" d="M68 1389q0 39 12 63q15 36 54 59t87 23q44 0 91.5 -25.5t47.5 -111.5q0 -8 -0.5 -13.5t-1.5 -11.5l-110 -536h-64l-112 512q-4 28 -4 41z" />
<glyph unicode="(" horiz-adv-x="682" d="M96 -4v1016q0 88 10.5 151.5t53 127t133.5 106.5q74 34 151 42.5t228 8.5v-135q-86 0 -132 -18.5t-65.5 -69t-19.5 -144.5v-1112q0 -80 8.5 -126.5t31 -72.5t65 -36t112.5 -10v-136h-146q-132 0 -226.5 34.5t-149 125.5t-54.5 248z" />
<glyph unicode=")" horiz-adv-x="682" d="M10 -276q88 0 132.5 18t64.5 68.5t20 144.5v1112q0 108 -15.5 158t-60.5 69t-141 19v135h146q132 0 226.5 -34.5t149 -125.5t54.5 -248v-1015q0 -88 -10.5 -151.5t-53 -127t-133.5 -106.5q-57 -26 -108 -36.5t-108.5 -13t-162.5 -2.5v136z" />
<glyph unicode="*" horiz-adv-x="895" d="M35 1174q0 8 2 10l282 35l121 254h11l122 -261l285 -34q1 -3 1.5 -5.5t0.5 -5.5l-213 -196l72 -271l-6 -8l-267 127l-258 -131q-2 2 -4 3.5t-4 2.5l66 279z" />
<glyph unicode="+" horiz-adv-x="1024" d="M70 467v262h311v315h260v-315h315v-262h-315v-320h-260v320h-311z" />
<glyph unicode="," horiz-adv-x="512" d="M78 0v336h352v-336l-184 -311h-133l108 311h-143z" />
<glyph unicode="-" horiz-adv-x="682" d="M33 590v264h618v-264h-618z" />
<glyph unicode="." horiz-adv-x="512" d="M76 0v336h356v-336h-356z" />
<glyph unicode="/" horiz-adv-x="682" d="M4 0l367 1446h307l-365 -1446h-309z" />
<glyph unicode="0" d="M55 383v700q0 68 9.5 124.5t52.5 119t140.5 103t256.5 40.5q174 0 293 -51q127 -55 160.5 -135t33.5 -180v-721q0 -114 -23.5 -196.5t-126.5 -146t-314 -63.5q-170 0 -269.5 41.5t-146 105.5t-56.5 124.5t-10 134.5zM426 307q0 -42 18.5 -73t83.5 -31q105 0 105 104v819 q0 115 -105 115q-65 0 -83.5 -35.5t-18.5 -81.5v-817z" />
<glyph unicode="1" d="M174 973v260q76 8 128.5 73t84.5 140h367v-1446h-367v1067q-63 -41 -107 -61t-106 -33z" />
<glyph unicode="2" d="M63 0v133q0 121 27 201t111 174q28 30 65.5 66.5t96 90t93 84.5t70.5 66q56 54 74 75t23.5 44.5t5.5 71.5v116q0 55 -18.5 83t-82.5 28q-58 0 -80 -26t-22 -83v-229h-363v195q0 85 17.5 149.5t87.5 126.5q72 62 161 84.5t197 22.5q216 0 321.5 -67.5t129.5 -154 t24 -200.5q0 -127 -20 -189t-83 -129.5t-255 -240.5q-94 -85 -120 -125t-31 -86h518v-281h-947z" />
<glyph unicode="3" d="M55 334v143h369v-149q0 -46 17 -76.5t83 -30.5t84.5 31.5t18.5 81.5v176q0 59 -23 78.5t-80 19.5h-149v279h155q53 0 75 17t22 73v141q0 43 -18.5 73t-84.5 30t-83 -29t-17 -72v-108h-354q0 110 4 161.5t21.5 94.5t60.5 86q114 114 364 114q240 0 367 -100 q76 -59 93 -125t17 -192q0 -72 -13.5 -121t-49 -89t-103.5 -85q100 -34 133 -84.5t33 -169.5v-101q0 -96 -5 -145.5t-28 -92t-75 -83.5q-72 -58 -167 -80.5t-198 -22.5q-60 0 -143 11.5t-150 40.5q-115 52 -145.5 128.5t-30.5 176.5z" />
<glyph unicode="4" d="M43 305v277l418 864h416v-864h147v-277h-147v-305h-371v305h-463zM283 582h239v522z" />
<glyph unicode="5" d="M61 459h365v-152q0 -49 19.5 -76.5t76.5 -27.5q68 0 88.5 27t20.5 77v320q0 48 -18 79t-85 31q-59 0 -78.5 -24.5t-25.5 -67.5h-344l16 801h856v-277h-528l-10 -325q51 56 108 92.5t156 36.5q160 0 252 -105q44 -50 56.5 -109t12.5 -151v-223q0 -100 -12.5 -161 t-60.5 -113q-121 -131 -398 -131q-129 0 -213.5 23t-138.5 63q-56 43 -80 94.5t-29.5 115t-5.5 183.5z" />
<glyph unicode="6" d="M61 426v616q0 117 18 186t81 126q126 116 375 116q248 0 374 -116q44 -43 63 -88t23 -98t4 -158h-364v100q0 44 -18.5 75.5t-84.5 31.5q-63 0 -79.5 -29t-16.5 -72v-332q39 51 92 83t164 32q144 0 214.5 -55.5t87 -121t16.5 -136.5v-189q0 -96 -15 -162t-71 -124 q-129 -129 -387 -129q-230 0 -361 112q-74 63 -94.5 141t-20.5 191zM436 319q0 -51 17 -80.5t84 -29.5q65 0 81.5 32t16.5 83v249q0 47 -16.5 77t-77.5 30q-69 0 -87 -31t-18 -78v-252z" />
<glyph unicode="7" d="M59 987v461h961v-283q-39 -52 -78 -114.5t-87 -164t-99 -243.5q-59 -166 -88.5 -284t-39 -198t-12.5 -161h-387q0 74 6 139.5t33 170t80 235.5q63 158 132.5 290t183.5 330h-304v-178h-301z" />
<glyph unicode="8" d="M51 362v148q0 116 45.5 173t149.5 95q-77 33 -114 74.5t-48.5 95t-11.5 139.5q0 116 22 181t92 114q31 22 65.5 39.5t104.5 33t168 15.5q191 0 314 -67q66 -36 101 -81.5t46.5 -94.5t11.5 -115q0 -108 -17.5 -169.5t-56 -95.5t-122.5 -69q85 -25 130 -61.5t62 -87.5 t17 -125v-164q0 -71 -10.5 -126t-55 -109.5t-145 -89.5t-271.5 -35q-90 0 -167.5 13t-145.5 46q-74 35 -110 85t-45 105.5t-9 132.5zM430 305q0 -37 10 -58.5t34 -30.5t65 -9q63 0 79.5 26t16.5 76v238q0 47 -18 77.5t-87 30.5q-66 0 -83 -29t-17 -77v-244zM430 989 q0 -47 17 -74.5t83 -27.5q67 0 86 26t19 78v158q0 39 -18 65.5t-85 26.5q-66 0 -84 -25.5t-18 -66.5v-160z" />
<glyph unicode="9" d="M47 440h379v-131q0 -46 16.5 -72t79.5 -26q69 0 87 28t18 72v320q-48 -40 -99.5 -64t-132.5 -24q-128 0 -211 61q-53 37 -77.5 84t-30.5 91t-6 102v190q0 100 23.5 181.5t124 147.5t304.5 66q49 0 132.5 -10.5t158.5 -46.5q119 -58 150.5 -139.5t31.5 -175.5v-707 q0 -99 -18.5 -167.5t-89.5 -127.5q-133 -112 -365 -112q-216 0 -344 94q-65 48 -92 98.5t-33 107t-6 160.5zM426 864q0 -49 17 -77.5t83 -28.5q67 0 84 29t17 75v246q0 56 -20 82.5t-87 26.5q-57 0 -75.5 -27t-18.5 -78v-248z" />
<glyph unicode=":" horiz-adv-x="598" d="M162 0v334h356v-334h-356zM162 786v336h356v-336h-356z" />
<glyph unicode=";" horiz-adv-x="598" d="M160 0v330h358v-330l-196 -313h-127l112 313h-147zM160 786v336h358v-336h-358z" />
<glyph unicode="&#x3c;" horiz-adv-x="1024" d="M2 592v254l1022 461v-285l-672 -303l672 -295v-283z" />
<glyph unicode="=" horiz-adv-x="1024" d="M0 252v260h1024v-260h-1024zM0 678v260h1024v-260h-1024z" />
<glyph unicode="&#x3e;" horiz-adv-x="1024" d="M0 141v283l674 295l-674 303v283l1024 -459v-254z" />
<glyph unicode="?" horiz-adv-x="981" d="M160 1075q0 121 10.5 175t58.5 104q39 40 96 63.5t117 32t107 8.5q184 0 289 -65q78 -48 102.5 -112t24.5 -140q0 -73 -19 -124t-62 -98t-136 -131q-79 -72 -103.5 -99t-30.5 -46.5t-6 -56.5v-123h-356q0 118 3.5 160t20.5 84q23 50 71.5 103t172.5 171q73 70 95 100.5 t22 71.5t-23 62.5t-57 21.5q-30 0 -49 -16q-22 -16 -26.5 -38t-4.5 -108h-317zM252 0v307h356v-307h-356z" />
<glyph unicode="@" horiz-adv-x="1835" d="M141 485q0 194 72 373t201 314.5t300 210.5t365 75q159 0 277 -50.5t191.5 -134t110 -191t36.5 -218.5q0 -185 -70 -355t-183 -272t-233 -102q-68 0 -118 33q-35 23 -48.5 47.5t-21.5 60.5q-46 -55 -106.5 -97t-153.5 -42q-71 0 -135 35t-105 112.5t-41 200.5 q0 104 33 211t93.5 192.5t142.5 135t178 49.5q85 0 131.5 -35.5t81.5 -87.5l20 80h184l-67 -325q-26 -122 -42.5 -213t-16.5 -127q0 -31 28 -54q36 0 69 20t87 101q59 91 90 202t31 224q0 154 -66 252t-172 142t-223 44q-142 0 -277.5 -61.5t-243.5 -174.5t-170.5 -261 t-62.5 -316q0 -200 92.5 -329.5t235 -187.5t295.5 -58q155 0 287.5 51t215.5 112.5t162 135.5l97 -125q-97 -89 -194 -159.5t-241 -123.5t-319 -53q-126 0 -264.5 38t-259.5 123.5t-197 230t-76 347.5zM690 492q0 -82 39 -127.5t92 -45.5q60 0 118.5 57.5t95 150.5t36.5 190 q0 49 -17 88.5t-48.5 61.5t-73.5 22q-68 0 -124.5 -61.5t-87 -155t-30.5 -180.5z" />
<glyph unicode="A" horiz-adv-x="1151" d="M-4 0l336 1446h487l328 -1446h-404l-45 326h-247l-50 -326h-405zM487 582h175l-87 579z" />
<glyph unicode="B" horiz-adv-x="1110" d="M70 0v1446h542q98 0 159.5 -9.5t119.5 -39.5q107 -53 137.5 -135t30.5 -177q0 -83 -19 -144.5t-73 -108.5t-156 -76q127 -25 176 -64q64 -50 81 -121.5t17 -173.5q0 -108 -20 -179.5t-72 -121.5q-41 -41 -95 -62t-117 -27.5t-152 -6.5h-559zM469 276q127 0 145 5 q39 8 50.5 33t11.5 71v100q0 64 -25 88q-12 12 -26 16t-44.5 5.5t-111.5 1.5v-320zM469 870h90q62 0 84.5 23.5t22.5 83.5q0 105 -3.5 131t-21.5 41q-17 14 -41 16t-131 2v-297z" />
<glyph unicode="C" horiz-adv-x="1110" d="M59 418v602q0 96 11.5 165t61.5 135.5t153 106.5q114 48 278 48q126 0 219.5 -25.5t163.5 -77.5q78 -57 102.5 -129t24.5 -190v-140h-399v172q0 41 -17.5 71t-81.5 30q-50 0 -73 -16.5t-28.5 -34.5t-8.5 -50v-735q0 -37 18.5 -65.5t83.5 -28.5q69 0 88 29.5t19 74.5v175 h405q1 -23 1.5 -42t0.5 -49q0 -108 -13.5 -185.5t-62.5 -142.5t-154.5 -104t-283.5 -39q-251 0 -377 95q-86 63 -108.5 145t-22.5 205z" />
<glyph unicode="D" horiz-adv-x="1151" d="M70 0v1446h469q131 0 243.5 -18t192.5 -82q75 -60 96 -142t21 -209v-499q0 -158 -22 -249t-101 -159q-51 -42 -106.5 -60.5t-116 -23t-162.5 -4.5h-514zM479 270h90q66 0 90.5 25t24.5 94v649q0 72 -16 95q-18 25 -46.5 29.5t-142.5 4.5v-897z" />
<glyph unicode="E" horiz-adv-x="895" d="M72 0v1446h790v-281h-385v-293h357v-276h-357v-317h385v-279h-790z" />
<glyph unicode="F" horiz-adv-x="854" d="M72 0v1446h778v-279h-373v-293h344v-276h-344v-598h-405z" />
<glyph unicode="G" horiz-adv-x="1151" d="M55 393v625q0 92 10.5 159.5t59 137t158 114t288.5 44.5q225 0 340.5 -63t148 -150t32.5 -197v-117h-394v131q0 50 -21.5 77.5t-94.5 27.5q-75 0 -95 -26.5t-20 -74.5v-739q0 -50 19.5 -83.5t91.5 -33.5q78 0 99 32.5t21 78.5v164h-125v256h519v-756h-394v158 q-49 -92 -115 -136.5t-177 -44.5q-228 0 -289.5 121t-61.5 295z" />
<glyph unicode="H" horiz-adv-x="1151" d="M72 0v1448h409v-569h191v569h405v-1448h-405v578h-191v-578h-409z" />
<glyph unicode="I" horiz-adv-x="555" d="M72 0v1446h409v-1446h-409z" />
<glyph unicode="J" horiz-adv-x="725" d="M25 0v276h108q68 0 91.5 25t23.5 98v1047h405v-1065q0 -106 -13.5 -174t-51 -114.5t-109 -69.5t-182.5 -23h-272z" />
<glyph unicode="K" horiz-adv-x="1151" d="M74 0v1446h401v-664l246 664h409l-290 -692l327 -754h-434l-258 670v-670h-401z" />
<glyph unicode="L" horiz-adv-x="854" d="M74 0v1446h403v-1172h375v-274h-778z" />
<glyph unicode="M" horiz-adv-x="1536" d="M72 0v1446h514l184 -954l180 954h510v-1446h-340v991l-223 -991h-260l-225 973v-973h-340z" />
<glyph unicode="N" horiz-adv-x="1151" d="M74 0v1446h375l208 -625q52 -161 82 -274l-4 899h340v-1446h-383l-227 686q-43 133 -57 197l6 -883h-340z" />
<glyph unicode="O" horiz-adv-x="1151" d="M55 444v545q0 91 5 143t23 102t56 91q127 143 439 143q209 0 346 -77q106 -61 134.5 -153.5t28.5 -238.5v-553q0 -87 -6.5 -144.5t-33 -114t-86.5 -103.5q-136 -102 -375 -102q-185 0 -297 44t-161 112t-61 139t-12 167zM465 367q0 -49 19 -80t87 -31t87.5 29t19.5 82 v720q0 48 -18.5 76.5t-88.5 28.5q-64 0 -85 -29t-21 -80v-716z" />
<glyph unicode="P" horiz-adv-x="1110" d="M72 0v1448h618q72 0 131.5 -8.5t120 -44t94.5 -109.5q23 -47 30 -117.5t7 -236.5q0 -165 -42.5 -253t-136 -122.5t-259.5 -34.5h-158v-522h-405zM477 799h103q43 0 65.5 12.5t29.5 36.5t7 67v150q0 64 -25 84t-77 20h-103v-370z" />
<glyph unicode="Q" horiz-adv-x="1151" d="M55 444v545q0 91 5 143t23 102t56 91q127 143 439 143q209 0 346 -77q106 -61 134.5 -153.5t28.5 -238.5v-553q0 -104 -10.5 -172.5t-52.5 -126.5q-91 -122 -285 -153q0 -69 4.5 -95.5t24.5 -37.5t70 -11h108v-227h-317q-93 0 -143.5 23t-71.5 74.5t-21 138.5v139 q-145 29 -218 88t-96.5 143.5t-23.5 214.5zM465 367q0 -49 19 -80t87 -31t87.5 29t19.5 82v720q0 48 -18.5 76.5t-88.5 28.5q-64 0 -85 -29t-21 -80v-716z" />
<glyph unicode="R" horiz-adv-x="1151" d="M70 0v1448h442q164 0 260.5 -11t166 -46t105 -107.5t35.5 -198.5q0 -64 -10 -121t-51 -112.5t-127 -83.5q-15 -4 -21 -5.5t-15.5 -4t-13.5 -3t-7 -1.5q25 0 59 -9q127 -28 159.5 -97.5t32.5 -184.5v-303q0 -61 11 -90.5t41 -69.5h-408q-13 24 -25 52t-18 63t-6 96v289 q0 57 -18 78.5t-76 21.5h-105v-600h-411zM481 874h105q47 0 67 14t24.5 43t4.5 99q0 77 -16 103t-78 26h-107v-285z" />
<glyph unicode="S" d="M31 465h397v-96q0 -117 100 -117q61 0 78 35t17 84q0 41 -10.5 64t-41 47.5t-110.5 80.5q-208 148 -278.5 207.5t-97 120t-26.5 172.5q0 95 25 180t130.5 156t324.5 71q207 0 333 -81q94 -66 117 -152t23 -248h-379v96q0 107 -96 107q-51 0 -71 -29t-20 -65 q0 -33 16.5 -54.5t55.5 -52.5q9 -7 69 -50.5t101.5 -73.5t52.5 -38q116 -88 174 -143.5t85.5 -125t27.5 -179.5q0 -101 -28 -185.5t-137 -151.5t-328 -67q-222 0 -334 58q-80 43 -116.5 107.5t-45 136t-8.5 186.5z" />
<glyph unicode="T" horiz-adv-x="1024" d="M-2 1169v277h1022v-277h-307v-1169h-408v1169h-307z" />
<glyph unicode="U" horiz-adv-x="1151" d="M63 367v1081h406v-1063q0 -49 18 -84t86 -35q66 0 84.5 34t18.5 83v1065h407v-1057q0 -66 -3 -107t-20 -87.5t-54 -86t-103 -73.5q-111 -57 -328 -57q-234 0 -347 63t-139 142.5t-26 181.5z" />
<glyph unicode="V" horiz-adv-x="1110" d="M-2 1446h399l154 -1114q4 64 14 143l137 971h404l-281 -1446h-555z" />
<glyph unicode="W" horiz-adv-x="1706" d="M2 1446h358l111 -1026l143 1026h467l148 -1026l108 1026h357l-181 -1446h-501l-164 1077l-166 -1077h-496z" />
<glyph unicode="X" d="M0 0l250 756l-250 690h412l94 -387q8 -36 26 -150q4 26 11 73t14 80t21 85l77 299h404l-240 -690l240 -756h-404l-100 399q-6 26 -23 129q-27 -143 -38 -184l-91 -344h-403z" />
<glyph unicode="Y" horiz-adv-x="1151" d="M2 1446h401l175 -627l170 627h395l-361 -981v-465h-401v465z" />
<glyph unicode="Z" horiz-adv-x="981" d="M33 0v281l469 890h-416v275h856v-285l-473 -880h473v-281h-909z" />
<glyph unicode="[" horiz-adv-x="682" d="M94 -412v1858h576v-133h-219v-1592h219v-133h-576z" />
<glyph unicode="\" horiz-adv-x="682" d="M4 1446h309l365 -1446h-307z" />
<glyph unicode="]" horiz-adv-x="682" d="M10 -281h219v1594h-219v133h576v-1860h-576v133z" />
<glyph unicode="^" horiz-adv-x="1493" d="M233 637l416 809h213l398 -809h-283l-225 473l-238 -473h-281z" />
<glyph unicode="_" horiz-adv-x="1024" d="M-20 -154h1064v-102h-1064v102z" />
<glyph unicode="`" horiz-adv-x="555" d="M-10 1425h416l159 -251h-309z" />
<glyph unicode="a" d="M43 270q0 97 17.5 156.5t56.5 97t105.5 62.5t180.5 53q144 33 211 63q0 86 -3 107t-17 37q-21 20 -66 20q-38 0 -56 -16.5t-22 -46.5t-4 -90h-358q0 102 6 155.5t33.5 98.5t91.5 82q114 67 332 67q143 0 235 -29q139 -43 177 -124t38 -185v-639q0 -58 10.5 -83t41.5 -56 h-439v96q-70 -57 -136 -90t-169 -33q-99 0 -172 45q-60 41 -77 98t-17 154zM430 367q0 -109 4 -123q13 -60 82 -60q64 0 81 29.5t17 73.5v237q-86 -33 -122.5 -51t-49 -40t-12.5 -66z" />
<glyph unicode="b" d="M61 0v1446h388v-483q36 66 94.5 111.5t175.5 45.5q195 0 247 -107t52 -276v-393q0 -129 -17 -188q-26 -87 -99.5 -133t-170.5 -46q-82 0 -139 24.5t-86 55t-57 72.5v-129h-388zM449 293q0 -45 15.5 -75t72.5 -30q60 0 76 29t16 82v508q0 100 -90 100q-57 0 -73.5 -28.5 t-16.5 -73.5v-512z" />
<glyph unicode="c" horiz-adv-x="1024" d="M47 324v424q0 92 23.5 168.5t123.5 138t304 61.5q142 0 235 -29q152 -45 193 -127t41 -174v-114h-369v108q0 39 -15 63.5t-69 24.5q-52 0 -67 -25t-15 -63v-456q0 -46 17 -72.5t65 -26.5q45 0 68 25q12 15 14 35t2 109h383q0 -139 -12.5 -197t-69.5 -113 q-50 -47 -119.5 -72.5t-125.5 -31t-107 -5.5q-162 0 -265 31.5t-153 83t-66 108t-16 126.5z" />
<glyph unicode="d" d="M49 324v458q0 98 21.5 169t84.5 116t181 45q203 0 276 -139v473h389v-1446h-389v127q-36 -66 -89 -108t-171 -42q-139 0 -206 54t-82 124t-15 169zM438 287q0 -39 16 -63.5t74 -24.5q54 0 69 27.5t15 64.5v497q0 37 -15.5 63t-72.5 26q-56 0 -71 -25.5t-15 -63.5v-501z " />
<glyph unicode="e" horiz-adv-x="1024" d="M47 350v375q0 96 13 163t56.5 118.5t137.5 81.5t248 30q62 0 116.5 -4.5t109 -16.5t99.5 -34q70 -33 105 -84t43 -99.5t8 -113.5v-279h-547v-161q0 -45 16.5 -76t73.5 -31q43 0 60.5 16t21.5 45.5t4 98.5h371q0 -88 -5 -138t-26.5 -95.5t-68.5 -84.5q-38 -30 -83.5 -48.5 t-112 -28t-169.5 -9.5q-212 0 -315 52t-129.5 129.5t-26.5 193.5zM436 662h182v133q0 94 -90 94q-60 0 -76 -28t-16 -68v-131z" />
<glyph unicode="f" horiz-adv-x="725" d="M0 883v209h166q0 108 2 138.5t8 55.5q25 104 98.5 132t169.5 28h291v-207q-97 0 -120.5 -2t-41.5 -16q-17 -14 -20.5 -37.5t-3.5 -91.5h176v-209h-176v-883h-383v883h-166z" />
<glyph unicode="g" d="M49 391v369q0 154 33 219q35 72 107.5 103.5t150.5 31.5q192 0 278 -149v127h383v-1192q0 -123 -27 -201t-130 -133q-112 -60 -293 -60q-100 0 -197 15.5t-176 72.5q-51 37 -76 84t-30.5 92.5t-5.5 112.5h366q0 -67 6 -84q19 -47 88 -47q59 0 75.5 28t16.5 70v267 q-39 -59 -95.5 -99.5t-170.5 -40.5q-139 0 -206 61t-82 144.5t-15 208.5zM432 315q0 -42 16.5 -69t79.5 -27q60 0 75 26t15 72v465q0 46 -19.5 71.5t-76.5 25.5q-42 0 -66 -20t-24 -79v-465z" />
<glyph unicode="h" d="M61 0v1446h385v-461q96 129 261 129q130 0 215 -84q47 -45 62 -105.5t15 -158.5v-766h-385v815q0 47 -17.5 67.5t-64.5 20.5q-86 0 -86 -92v-811h-385z" />
<glyph unicode="i" horiz-adv-x="512" d="M61 0v1090h388v-1090h-388zM61 1188v258h388v-258h-388z" />
<glyph unicode="j" horiz-adv-x="512" d="M-55 -188q54 0 75.5 5t32 24t10.5 61v1190h386v-1182q0 -114 -16.5 -174t-74.5 -91.5t-180 -31.5h-233v199zM61 1188v258h388v-258h-388z" />
<glyph unicode="k" d="M61 0v1446h373v-805l209 451h377l-260 -496l309 -596h-403l-232 520v-520h-373z" />
<glyph unicode="l" horiz-adv-x="512" d="M63 0v1446h386v-1446h-386z" />
<glyph unicode="m" horiz-adv-x="1622" d="M61 0v1092h385v-129q94 151 271 151q107 0 170.5 -43.5t101.5 -120.5q26 43 58 78t84 58.5t126 23.5q103 0 179 -45.5t96 -107.5t20 -140v-817h-385v776q0 90 -77 90q-91 0 -91 -92v-774h-385v780q0 94 -84 94t-84 -94v-780h-385z" />
<glyph unicode="n" d="M61 0v1092h388v-109q39 51 98.5 91t159.5 40q160 0 239 -108q35 -47 45 -106.5t10 -156.5v-743h-389v780q0 42 -13 72.5t-64 30.5q-55 0 -70.5 -31t-15.5 -72v-780h-388z" />
<glyph unicode="o" d="M51 330v440q0 113 38.5 198t180.5 124q103 28 248 28q230 0 338 -54t133 -126t25 -174v-418q0 -111 -22.5 -184.5t-108.5 -124.5q-67 -41 -151.5 -52.5t-172.5 -11.5q-148 0 -230 15.5t-139 46.5q-87 47 -113 118.5t-26 174.5zM434 338q0 -49 17.5 -82t83.5 -33 q44 0 65 18t26 42t5 59v418q0 44 -19 75t-80 31q-62 0 -80 -29.5t-18 -70.5v-428z" />
<glyph unicode="p" d="M61 -344v1436h385v-136q34 67 89 112.5t178 45.5q95 0 157 -29q96 -42 121 -111.5t25 -160.5v-496q0 -72 -6 -116.5t-25 -83.5q-65 -142 -264 -142q-80 0 -135 21t-86.5 52.5t-53.5 70.5v-463h-385zM446 309q0 -39 16.5 -69.5t74.5 -30.5q59 0 75.5 28.5t16.5 73.5v463 q0 44 -15.5 72t-74.5 28q-62 0 -77.5 -29t-15.5 -75v-461z" />
<glyph unicode="q" d="M49 375v370q0 103 15.5 178t82.5 133t205 58q77 0 130.5 -21.5t80 -48t39.5 -51.5t16 -30v129h386v-1436h-386v475q-83 -154 -272 -154q-80 0 -139 25.5t-93 68t-48 93.5q-17 49 -17 211zM436 307q0 -40 15.5 -68t70.5 -28q62 0 79 30t17 72v463q0 45 -15 73t-75 28 q-49 0 -70.5 -22.5t-21.5 -76.5v-471z" />
<glyph unicode="r" horiz-adv-x="682" d="M61 0v1092h388v-170q47 81 94 123t139 61v-354q-101 0 -145 -7.5t-66 -41.5t-22 -113v-590h-388z" />
<glyph unicode="s" horiz-adv-x="981" d="M18 326h388q0 -89 13.5 -120.5t74.5 -31.5q79 0 79 84q0 27 -9.5 42t-39 31t-106.5 50q-129 59 -191.5 92.5t-106.5 73.5t-64.5 96.5t-20.5 138.5q0 110 40.5 182.5t149.5 110.5q64 22 143.5 29.5t135.5 7.5q175 0 278 -43q108 -46 134 -113.5t26 -195.5h-369 q0 58 -4 86.5t-22 45.5t-60 17q-81 0 -81 -80q0 -33 18 -57q6 -7 12 -12t18.5 -11.5t35.5 -17.5l69 -33q132 -59 201 -94.5t115 -74t68 -89.5t22 -127q0 -149 -79 -225t-179.5 -96.5t-208.5 -20.5q-199 0 -297 41q-67 27 -103.5 61.5t-54 76.5t-21.5 81t-4 95z" />
<glyph unicode="t" horiz-adv-x="725" d="M2 883v209h162v356h379v-356h172v-209h-172v-566q0 -55 24 -75q18 -13 38 -15.5t120 -5.5v-221h-283q-45 0 -76.5 2.5t-65.5 15t-60 35.5q-48 40 -62 92t-14 125v613h-162z" />
<glyph unicode="u" d="M63 322v770h386v-793q0 -47 14 -78t67 -31q52 0 68 31.5t16 77.5v793h387v-1092h-387v111q-49 -61 -108.5 -98.5t-165.5 -37.5q-97 0 -155 39t-83.5 94.5t-32 107t-6.5 106.5z" />
<glyph unicode="v" horiz-adv-x="981" d="M-2 1092h383q6 -43 17.5 -120.5t20.5 -139.5t17 -113q15 -95 56 -410q5 43 18 144t25 183.5t25.5 173t41.5 282.5h379l-254 -1092h-463z" />
<glyph unicode="w" horiz-adv-x="1536" d="M0 1092h383l74 -762l125 762h374l111 -762l88 762h381l-217 -1092h-430l-127 707l-131 -707h-430z" />
<glyph unicode="x" horiz-adv-x="1024" d="M4 0l252 557l-229 535h379l102 -355l125 355h381l-252 -535l252 -557h-381l-125 379l-117 -379h-387z" />
<glyph unicode="y" horiz-adv-x="1024" d="M0 1090h385l131 -662l127 662h379l-303 -1078q-39 -137 -66 -202.5t-69 -112.5q-70 -76 -150.5 -95.5t-193.5 -19.5h-170l10 240q108 0 138 4t58 24q20 15 37 43.5t17 43.5z" />
<glyph unicode="z" horiz-adv-x="938" d="M31 0v221l393 651h-320v220h768v-220l-409 -651h426v-221h-858z" />
<glyph unicode="{" horiz-adv-x="725" d="M57 444v148q38 8 62 18q44 16 66 63t27 101t5 129v113q0 105 3.5 157.5t19 96t51.5 82.5q41 45 95.5 65.5t120 25.5t189.5 5v-141q-64 -9 -93.5 -31.5t-37.5 -63t-8 -118.5v-179q0 -113 -11.5 -186.5t-61 -132t-154.5 -72.5v-12q105 -14 155 -72t61 -131t11 -184v-186 q0 -126 29 -162q40 -47 110 -47v-142q-104 0 -167 4.5t-106 15.5t-79 34q-59 35 -87 87.5t-34 112.5t-6 164v129q0 103 -6.5 154.5t-34.5 87.5q-13 19 -45.5 42.5t-73.5 24.5z" />
<glyph unicode="|" horiz-adv-x="469" d="M104 -512v2048h261v-2048h-261z" />
<glyph unicode="}" horiz-adv-x="725" d="M29 -270q63 7 93 30t38 63.5t8 119.5v178q0 113 11 186.5t61 132t155 72.5v12q-105 14 -154.5 72.5t-61 131t-11.5 183.5v187q0 124 -29 162q-42 47 -110 47v141q154 0 227 -10t125 -43q59 -35 87 -87.5t34 -112.5t6 -165v-129q0 -103 6.5 -152.5t34.5 -89.5 q11 -18 45 -42t74 -25v-148q-23 -10 -62 -18q-44 -19 -66 -64t-27 -97.5t-5 -131.5v-113q0 -105 -3.5 -157.5t-19.5 -97t-51 -80.5q-42 -46 -96 -66.5t-119.5 -25.5t-189.5 -5v142z" />
<glyph unicode="~" horiz-adv-x="1493" d="M211 616q58 81 129 137t188 56q56 0 98 -14.5t189 -81.5q96 -45 156 -45q97 0 205 125l106 -213q-64 -74 -149 -123t-170 -49q-87 0 -222 67q-78 40 -121 57t-83 17q-42 0 -71 -12.5t-58 -40.5t-84 -90z" />
<glyph unicode="&#xa1;" horiz-adv-x="598" d="M76 0v356l55 627h252l53 -614v-369h-360zM76 1137v311h360v-311h-360z" />
<glyph unicode="&#xa2;" horiz-adv-x="1024" d="M47 324v424q0 83 17.5 152t93 131.5t233.5 80.5v242h227v-242q109 -13 181 -49q109 -54 138.5 -122.5t29.5 -154.5v-114h-369v108q0 39 -15 63.5t-69 24.5q-52 0 -67 -25t-15 -63v-456q0 -46 17 -72.5t65 -26.5q47 0 68 25q12 15 14 35t2 108h381q0 -139 -12 -197.5 t-70 -113.5q-42 -39 -96.5 -62.5t-91 -30t-91.5 -12.5v-288h-227v295q-154 20 -230.5 78.5t-95 122t-18.5 139.5z" />
<glyph unicode="&#xa3;" horiz-adv-x="1280" d="M39 201q0 109 64 171t165 62q60 0 146 -31q-8 45 -25.5 91t-54.5 116h-268v221h151q-23 48 -37 85.5t-24.5 87t-10.5 108.5q0 193 127.5 275.5t343.5 82.5q75 0 160.5 -15t149.5 -48q101 -52 130 -124t29 -177v-145h-362v147q0 113 -105 113q-114 0 -114 -111 q0 -65 26 -131t68 -148h397v-221h-290q25 -63 41 -120.5t16 -122.5q0 -35 -12 -109q33 -10 65 -10q59 0 74.5 40t15.5 99v96h344v-164q0 -344 -268 -344q-77 0 -144 25t-186 84q-130 -115 -313 -115q-100 0 -166.5 30t-99.5 82t-33 120zM238 201q0 -24 19 -39t50 -15 q40 0 59 19.5t33 52.5q-51 37 -94 37q-28 0 -47.5 -16.5t-19.5 -38.5z" />
<glyph unicode="&#xa4;" horiz-adv-x="1366" d="M14 219l166 166q-27 44 -45 83t-30.5 100.5t-12.5 136.5q0 98 19.5 155.5t66.5 143.5l-162 165l193 195l164 -164q80 45 145 66.5t166 21.5q104 0 162.5 -19.5t146.5 -68.5l164 164l197 -195l-166 -163q44 -81 65 -145t21 -165q0 -104 -21 -168t-67 -145l166 -168 l-197 -195l-164 168q-96 -48 -155.5 -67t-155.5 -19q-98 0 -158.5 21.5t-148.5 66.5l-166 -165zM348 688q0 -96 47.5 -171.5t126.5 -118t168 -42.5q90 0 165.5 45.5t119 124t43.5 170.5q0 105 -49.5 182t-128 116.5t-158.5 39.5t-156.5 -37.5t-127 -117t-50.5 -191.5z" />
<glyph unicode="&#xa5;" horiz-adv-x="1151" d="M2 1446h401l177 -633l168 633h395l-217 -584h168v-205h-242l-45 -120h287v-205h-312v-332h-401v332h-320v205h291l-43 120h-248v205h170z" />
<glyph unicode="&#xa6;" horiz-adv-x="469" d="M104 -358v716h261v-716h-261zM104 666v716h261v-716h-261z" />
<glyph unicode="&#xa7;" horiz-adv-x="938" d="M20 106l125 216q91 -49 156.5 -82t85.5 -39t49 -6q45 0 61.5 20t16.5 43t-18 41t-47 35q-2 2 -55.5 33t-77 45t-33.5 20q-145 81 -198.5 132t-53.5 138q0 59 37 131t163 109q-61 38 -95.5 65t-54.5 64.5t-20 95.5q0 131 104 214t281 83q112 0 205 -31.5t199 -86.5 l-125 -211q-153 74 -191 90t-65 16q-30 0 -49 -16.5t-19 -40.5q0 -22 9.5 -35t57.5 -42.5t99 -59.5q141 -80 208 -125.5t95.5 -90t28.5 -110.5q0 -174 -188 -238q71 -40 116 -90t45 -139q0 -132 -104.5 -204.5t-282.5 -72.5q-99 0 -186 20t-149 46.5t-130 62.5zM285 778 q0 -29 14.5 -44.5t54.5 -41.5q119 -73 234 -137q30 15 50.5 34.5t20.5 55.5q0 32 -16.5 49t-64.5 45q-62 39 -224 131q-69 -34 -69 -92z" />
<glyph unicode="&#xa8;" horiz-adv-x="555" d="M-143 1176v249h350v-249h-350zM346 1176v249h352v-249h-352z" />
<glyph unicode="&#xa9;" horiz-adv-x="1706" d="M125 725q0 199 97.5 366.5t266 264t367.5 96.5q150 0 284 -56t233 -155.5t154.5 -235t55.5 -286.5q0 -141 -52.5 -271.5t-151 -234t-234 -161.5t-291.5 -58q-141 0 -273.5 53t-235 150.5t-161.5 234.5t-59 293zM190 723q0 -141 52 -261t145 -211.5t213 -141.5t248 -50 q151 0 274 53.5t212 147t136.5 212.5t47.5 247q0 136 -50 259.5t-140 215t-210 142t-260 50.5q-185 0 -338 -90t-241.5 -242t-88.5 -331zM358 721q0 139 61.5 258t177.5 188.5t273 69.5q103 0 182 -28.5t122.5 -62.5t97.5 -85l-178 -170q-105 100 -222 100 q-119 0 -189.5 -73t-70.5 -191q0 -120 72 -193t193 -73q70 0 113.5 22t103.5 72l178 -166q-43 -43 -93 -81t-124 -65.5t-174 -27.5q-259 0 -391 151.5t-132 354.5z" />
<glyph unicode="&#xaa;" horiz-adv-x="725" d="M47 915q0 70 19.5 119.5t97.5 81.5q20 7 119.5 35t119.5 37q0 60 -7 78t-40 18q-24 0 -34.5 -9.5t-12.5 -28t-2 -58.5h-231q0 88 10.5 131t52.5 74q28 21 83.5 40t156.5 19q131 0 194 -37t77 -88t14 -127v-348q0 -42 7.5 -69t37.5 -52h-306v62q-31 -34 -70.5 -54 t-113.5 -20q-79 0 -117 30.5t-46.5 70.5t-8.5 95zM299 975q0 -52 2 -73t12 -30.5t33 -9.5q39 0 48 16.5t9 49.5v135q-72 -29 -88 -42t-16 -46z" />
<glyph unicode="&#xab;" horiz-adv-x="768" d="M27 451v301l323 264v-318l-125 -98l125 -102v-312zM397 453v297l328 270v-318l-127 -102l127 -102v-316z" />
<glyph unicode="&#xac;" horiz-adv-x="1366" d="M0 465v260h1364v-725h-260v465h-1104z" />
<glyph unicode="&#xad;" horiz-adv-x="682" d="M33 590v264h618v-264h-618z" />
<glyph unicode="&#xae;" horiz-adv-x="1706" d="M125 723q0 154 56.5 287t160 234t233.5 154.5t277 53.5q152 0 287 -55.5t233.5 -154t154.5 -234t56 -287.5q0 -146 -53.5 -276.5t-155 -233t-235 -160t-289.5 -57.5q-138 0 -271 53.5t-235 151.5t-160.5 233.5t-58.5 290.5zM190 723q0 -183 89.5 -336.5t242 -240.5 t330.5 -87q142 0 263.5 52t212.5 144.5t140.5 212.5t49.5 253q0 135 -50 258t-140.5 214t-211.5 142t-264 51q-178 0 -330.5 -88.5t-242 -240t-89.5 -334.5zM512 262v938h334q156 0 221 -22q84 -25 125 -91t41 -141q0 -62 -25.5 -105t-57 -64.5t-81.5 -45.5q47 -28 69 -62 t36 -114q17 -110 31 -169t48 -124h-258q-18 39 -24 65t-27 138q-18 107 -30.5 139t-47 41.5t-129.5 9.5v-393h-225zM737 834h99q86 0 129 16.5t43 83.5q0 54 -31.5 73t-61.5 19q-18 2 -178 2v-194z" />
<glyph unicode="&#xaf;" horiz-adv-x="555" d="M-63 1176v174h681v-174h-681z" />
<glyph unicode="&#xb0;" horiz-adv-x="725" d="M10 1171q0 94 45.5 176t127 130.5t179.5 48.5q99 0 180.5 -48.5t127 -130.5t45.5 -176q0 -70 -26.5 -133.5t-75 -112.5t-113.5 -77.5t-138 -28.5q-94 0 -175.5 47.5t-129 128.5t-47.5 176zM250 1176q0 -45 34 -79t81 -34t79.5 33.5t32.5 79.5q0 50 -33 82t-79 32 q-48 0 -81.5 -32.5t-33.5 -81.5z" />
<glyph unicode="&#xb1;" horiz-adv-x="1024" d="M66 0v260h895v-260h-895zM66 696v260h319v318h260v-318h316v-260h-316v-319h-260v319h-319z" />
<glyph unicode="&#xb2;" horiz-adv-x="725" d="M51 543q0 101 4 148t23.5 87t66.5 90q22 26 209 191q38 34 50 47.5t16 28t4 41.5q0 60 -3 83.5t-17 33.5t-48 10q-46 0 -57.5 -20t-11.5 -56v-135h-236v118q0 56 10.5 95t44.5 73q28 28 87 54t172 26q202 0 253.5 -73t51.5 -209q0 -64 -10.5 -95t-47.5 -68t-145 -130 q-94 -84 -111.5 -104t-23.5 -52h342v-184h-623z" />
<glyph unicode="&#xb3;" horiz-adv-x="725" d="M53 850h238q0 -111 2 -119q8 -41 72 -41q44 0 55.5 20t11.5 58q0 106 -2 115q-4 25 -19 31t-49 6h-112v184h123q40 0 49.5 13t9.5 50q0 63 -3.5 86.5t-17 32t-49.5 8.5q-35 0 -49.5 -8t-18 -31.5t-3.5 -87.5h-225q0 72 3 107.5t15.5 63.5t42.5 55q82 65 233 65 q145 0 214.5 -41t85.5 -94t16 -123q0 -84 -26.5 -121t-69.5 -59q60 -23 78 -59.5t18 -100.5v-104q0 -51 -9.5 -87.5t-45.5 -68.5q-83 -74 -252 -74q-181 0 -260 72q-28 27 -39.5 52t-14 63.5t-2.5 136.5z" />
<glyph unicode="&#xb4;" horiz-adv-x="555" d="M-8 1169l158 256h415l-268 -256h-305z" />
<glyph unicode="&#xb5;" d="M63 -344v1436h386v-793q0 -47 14 -78t67 -31q52 0 68 31.5t16 77.5v793h387v-1092h-387v111q-17 -52 -38.5 -83.5t-61.5 -31.5q-21 0 -33 5.5t-32 23.5v-369h-386z" />
<glyph unicode="&#xb6;" horiz-adv-x="1366" d="M166 1008q0 177 106 299q55 60 119.5 91.5t122.5 39.5t117 8h512v-160h-74v-1628h-172v1628h-242v-1628h-172v940q-67 18 -121 45.5t-104 87.5q-92 108 -92 277z" />
<glyph unicode="&#xb8;" horiz-adv-x="555" d="M47 -129l209 215h197l-136 -156q93 0 141 -33.5t48 -107.5q0 -57 -37 -108t-111 -81t-174 -30q-39 0 -75 6l-35 107q41 -13 67 -13q101 0 101 74q0 30 -18 49t-50 19q-27 0 -82 -31z" />
<glyph unicode="&#xb9;" horiz-adv-x="725" d="M123 1141v172q43 9 77.5 33.5t63.5 99.5h244v-903h-244v649q-74 -45 -141 -51z" />
<glyph unicode="&#xba;" horiz-adv-x="725" d="M49 956v261q0 58 9 97t48 75q72 67 252 67q146 0 216 -37t86 -83t16 -105v-289q0 -76 -26 -126t-92 -76.5t-185 -26.5q-102 0 -165.5 15t-98 44.5t-47.5 73.5t-13 110zM307 956q0 -34 9 -52.5t44 -18.5q37 0 45.5 17t8.5 54v250q0 38 -8.5 56t-45.5 18q-53 0 -53 -74 v-250z" />
<glyph unicode="&#xbb;" horiz-adv-x="768" d="M39 178v314l125 102l-125 104v316l328 -271v-297zM414 178v316l123 100l-123 104v312l323 -265v-301z" />
<glyph unicode="&#xbc;" horiz-adv-x="1706" d="M123 1141v172q43 9 77.5 33.5t63.5 99.5h244v-905h-244v651q-74 -45 -141 -51zM518 0l440 1446h197l-440 -1446h-197zM1020 180v185l270 538h269v-538h104v-185h-104v-180h-238v180h-301zM1182 365h139v274z" />
<glyph unicode="&#xbd;" horiz-adv-x="1706" d="M123 1141v172q43 9 77.5 33.5t63.5 99.5h244v-903h-244v649q-74 -45 -141 -51zM465 0l440 1446h197l-443 -1446h-194zM1032 0q0 101 4 148t24 88t66 90q22 24 209 190q38 34 50 48t16 28.5t4 40.5q0 60 -3 83.5t-16.5 33.5t-46.5 10q-46 0 -57.5 -20t-11.5 -56v-135h-236 v119q0 57 10 94.5t46 73.5q79 79 256 79q202 0 253.5 -73t51.5 -209q0 -64 -10.5 -94.5t-45.5 -65.5t-147 -133q-94 -84 -111.5 -104t-23.5 -52h342v-184h-623z" />
<glyph unicode="&#xbe;" horiz-adv-x="1706" d="M53 850h238q0 -111 2 -119q8 -41 72 -41q44 0 55.5 20t11.5 58q0 106 -2 115q-4 25 -19 31t-49 6h-112v184h123q40 0 49.5 13t9.5 50q0 63 -3.5 86.5t-17 32t-49.5 8.5q-35 0 -49.5 -8t-18 -31.5t-3.5 -87.5h-225q0 72 3 107.5t15.5 63.5t42.5 55q82 65 233 65 q145 0 214.5 -41t85.5 -94t16 -123q0 -84 -26.5 -121t-69.5 -59q60 -23 78 -59.5t18 -100.5v-104q0 -51 -9.5 -87.5t-45.5 -68.5q-83 -74 -252 -74q-185 0 -258 70q-30 30 -41.5 54.5t-14 63t-2.5 136.5zM578 0l440 1446h196l-440 -1446h-196zM1020 180v185l270 538h269 v-538h104v-185h-104v-180h-238v180h-301zM1182 365h139v274z" />
<glyph unicode="&#xbf;" horiz-adv-x="981" d="M14 299q0 73 19 124t64.5 99.5t133.5 126.5q79 72 103.5 99t30.5 46t6 58v123h356q0 -118 -3.5 -160.5t-21.5 -83.5q-23 -52 -69 -102.5t-174 -169.5q-73 -70 -95 -100.5t-22 -71.5t24 -62.5t56 -21.5q28 0 49 16q22 17 26.5 38.5t4.5 107.5h317q0 -121 -10.5 -176 t-58.5 -103q-55 -56 -141 -80t-179 -24q-184 0 -289 65q-78 48 -102.5 112t-24.5 140zM371 1130v316h356v-316h-356z" />
<glyph unicode="&#xc0;" horiz-adv-x="1151" d="M-4 0l336 1446h487l328 -1446h-404l-45 326h-247l-50 -326h-405zM223 1794h391l127 -227h-307zM487 582h175l-87 579z" />
<glyph unicode="&#xc1;" horiz-adv-x="1151" d="M-4 0l336 1446h487l328 -1446h-404l-45 326h-247l-50 -326h-405zM403 1567l125 227h392l-211 -227h-306zM487 582h175l-87 579z" />
<glyph unicode="&#xc2;" horiz-adv-x="1151" d="M-4 0l336 1446h487l328 -1446h-404l-45 326h-247l-50 -326h-405zM215 1552l158 224h413l154 -224h-303l-62 93l-55 -93h-305zM487 582h175l-87 579z" />
<glyph unicode="&#xc3;" horiz-adv-x="1151" d="M-4 0l336 1446h487l328 -1446h-404l-45 326h-247l-50 -326h-405zM217 1528q4 102 49 158q66 83 183 83q38 0 65.5 -5.5t128.5 -32.5q84 -23 109 -23q36 0 48.5 15t16.5 42h115q-2 -54 -16 -106.5t-64.5 -96.5t-149.5 -44q-59 0 -147 30q-121 37 -147 37q-54 0 -68 -57 h-123zM487 582h175l-87 579z" />
<glyph unicode="&#xc4;" horiz-adv-x="1151" d="M-4 0l336 1446h487l328 -1446h-404l-45 326h-247l-50 -326h-405zM164 1556v228h340v-228h-340zM487 582h175l-87 579zM647 1556v228h338v-228h-338z" />
<glyph unicode="&#xc5;" horiz-adv-x="1151" d="M-4 0l336 1446h487l328 -1446h-404l-45 326h-247l-50 -326h-405zM373 1690q0 60 29.5 108.5t78.5 76.5t103 28q56 0 104 -28.5t76.5 -76.5t28.5 -106t-28.5 -105.5t-76 -75.5t-104.5 -28q-85 0 -150 61q-23 26 -42 61.5t-19 84.5zM487 582h175l-87 579zM518 1692 q0 -26 21 -46t47 -20t45.5 19.5t19.5 46.5q0 28 -18.5 47.5t-46.5 19.5t-48 -20t-20 -47z" />
<glyph unicode="&#xc6;" horiz-adv-x="1622" d="M-2 0l524 1446h1067v-277h-381v-299h357v-276h-357v-322h381v-272h-776v387h-281l-126 -387h-408zM618 645h195v584z" />
<glyph unicode="&#xc7;" horiz-adv-x="1110" d="M59 418v602q0 91 9 151.5t41.5 115t97.5 99.5q126 89 356 89q245 0 383 -103q77 -57 102 -129.5t25 -189.5v-140h-399v172q0 40 -18 70.5t-81 30.5q-110 0 -110 -101v-733q0 -39 18.5 -67.5t83.5 -28.5q69 0 88 30t19 74v175h405q1 -22 1.5 -41t0.5 -50 q0 -102 -11 -174.5t-54.5 -138t-136 -106.5t-248.5 -50q-15 -14 -39 -45q95 0 141.5 -34t46.5 -109q0 -90 -85 -153.5t-236 -63.5q-40 0 -78 6l-33 107q39 -13 68 -13q40 0 70 16.5t30 55.5q0 32 -19 51t-51 19q-30 0 -79 -31l-45 90l106 111q-168 23 -250 93.5t-100.5 151 t-18.5 191.5z" />
<glyph unicode="&#xc8;" horiz-adv-x="895" d="M72 0v1446h790v-281h-385v-293h357v-276h-357v-317h385v-279h-790zM106 1794h392l127 -227h-308z" />
<glyph unicode="&#xc9;" horiz-adv-x="895" d="M72 0v1446h790v-281h-385v-293h357v-276h-357v-317h385v-279h-790zM287 1567l125 227h391l-211 -227h-305z" />
<glyph unicode="&#xca;" horiz-adv-x="895" d="M72 0v1446h790v-281h-385v-293h357v-276h-357v-317h385v-279h-790zM98 1552l158 224h414l153 -224h-303l-61 93l-56 -93h-305z" />
<glyph unicode="&#xcb;" horiz-adv-x="895" d="M47 1548v228h340v-228h-340zM72 0v1446h790v-281h-385v-293h357v-276h-357v-317h385v-279h-790zM530 1548v228h338v-228h-338z" />
<glyph unicode="&#xcc;" horiz-adv-x="555" d="M-76 1794h391l127 -227h-307zM72 0v1446h409v-1446h-409z" />
<glyph unicode="&#xcd;" horiz-adv-x="555" d="M72 0v1446h409v-1446h-409zM104 1567l125 227h392l-211 -227h-306z" />
<glyph unicode="&#xce;" horiz-adv-x="555" d="M-84 1552l158 224h413l154 -224h-303l-62 93l-55 -93h-305zM72 0v1446h409v-1446h-409z" />
<glyph unicode="&#xcf;" horiz-adv-x="555" d="M-135 1548v228h340v-228h-340zM72 0v1446h409v-1446h-409zM348 1548v228h338v-228h-338z" />
<glyph unicode="&#xd0;" horiz-adv-x="1151" d="M0 684v207h70v555h469q131 0 243.5 -18t192.5 -82q75 -60 96 -142t21 -209v-499q0 -101 -8 -171t-34.5 -130t-80.5 -107q-51 -42 -106.5 -60.5t-116 -23t-162.5 -4.5h-514v684h-70zM479 270h90q66 0 90.5 25t24.5 94v649q0 72 -16 95q-18 25 -46.5 29.5t-142.5 4.5v-276 h123v-207h-123v-414z" />
<glyph unicode="&#xd1;" horiz-adv-x="1151" d="M74 0v1446h375l208 -625q52 -161 82 -274l-4 899h340v-1446h-383l-227 686q-43 133 -57 197l6 -883h-340zM227 1528q4 102 49 158q66 83 183 83q39 0 65.5 -5.5t128.5 -32.5q84 -23 109 -23q36 0 48.5 15t16.5 42h115q-6 -96 -47.5 -171.5t-181.5 -75.5q-60 0 -148 30 q-121 37 -147 37q-54 0 -68 -57h-123z" />
<glyph unicode="&#xd2;" horiz-adv-x="1151" d="M55 444v545q0 91 5 143t23 102t56 91q127 143 439 143q209 0 346 -77q106 -61 134.5 -153.5t28.5 -238.5v-553q0 -87 -6.5 -144.5t-33 -114t-86.5 -103.5q-136 -102 -375 -102q-185 0 -297 44t-161 112t-61 139t-12 167zM223 1794h391l127 -227h-307zM465 367 q0 -49 19 -80t87 -31t87.5 29t19.5 82v720q0 48 -18.5 76.5t-88.5 28.5q-64 0 -85 -29t-21 -80v-716z" />
<glyph unicode="&#xd3;" horiz-adv-x="1151" d="M55 444v545q0 91 5 143t23 102t56 91q127 143 439 143q209 0 346 -77q106 -61 134.5 -153.5t28.5 -238.5v-553q0 -87 -6.5 -144.5t-33 -114t-86.5 -103.5q-136 -102 -375 -102q-185 0 -297 44t-161 112t-61 139t-12 167zM403 1567l125 227h392l-211 -227h-306zM465 367 q0 -49 19 -80t87 -31t87.5 29t19.5 82v720q0 48 -18.5 76.5t-88.5 28.5q-64 0 -85 -29t-21 -80v-716z" />
<glyph unicode="&#xd4;" horiz-adv-x="1151" d="M55 444v545q0 91 5 143t23 102t56 91q127 143 439 143q209 0 346 -77q106 -61 134.5 -153.5t28.5 -238.5v-553q0 -87 -6.5 -144.5t-33 -114t-86.5 -103.5q-136 -102 -375 -102q-185 0 -297 44t-161 112t-61 139t-12 167zM215 1552l158 224h413l154 -224h-303l-62 93 l-55 -93h-305zM465 367q0 -49 19 -80t87 -31t87.5 29t19.5 82v720q0 48 -18.5 76.5t-88.5 28.5q-64 0 -85 -29t-21 -80v-716z" />
<glyph unicode="&#xd5;" horiz-adv-x="1151" d="M55 444v545q0 91 5 143t23 102t56 91q127 143 439 143q209 0 346 -77q106 -61 134.5 -153.5t28.5 -238.5v-553q0 -87 -6.5 -144.5t-33 -114t-86.5 -103.5q-136 -102 -375 -102q-185 0 -297 44t-161 112t-61 139t-12 167zM217 1528q4 102 49 158q66 83 183 83 q38 0 65.5 -5.5t128.5 -32.5q84 -23 109 -23q36 0 48.5 15t16.5 42h115q-2 -54 -16 -106.5t-64.5 -96.5t-149.5 -44q-59 0 -147 30q-121 37 -147 37q-54 0 -68 -57h-123zM465 367q0 -49 19 -80t87 -31t87.5 29t19.5 82v720q0 48 -18.5 76.5t-88.5 28.5q-64 0 -85 -29 t-21 -80v-716z" />
<glyph unicode="&#xd6;" horiz-adv-x="1151" d="M55 444v545q0 91 5 143t23 102t56 91q127 143 439 143q209 0 346 -77q106 -61 134.5 -153.5t28.5 -238.5v-553q0 -87 -6.5 -144.5t-33 -114t-86.5 -103.5q-136 -102 -375 -102q-185 0 -297 44t-161 112t-61 139t-12 167zM164 1546v228h340v-228h-340zM465 367 q0 -49 19 -80t87 -31t87.5 29t19.5 82v720q0 48 -18.5 76.5t-88.5 28.5q-64 0 -85 -29t-21 -80v-716zM647 1546v228h338v-228h-338z" />
<glyph unicode="&#xd7;" horiz-adv-x="1024" d="M74 344l254 252l-254 256l184 182l254 -254l254 254l184 -182l-254 -256l254 -252l-184 -186l-254 252l-254 -252z" />
<glyph unicode="&#xd8;" horiz-adv-x="1151" d="M27 49l82 119q-31 67 -39 162q-4 55 -4 184v537q0 80 11 142.5t58.5 126.5t155.5 106t289 42q145 0 225 -25.5t141 -64.5l66 95l118 -80l-83 -119q22 -50 29 -92t7 -160v-567q0 -124 -10.5 -193t-40.5 -115q-106 -167 -438 -167q-112 0 -183.5 12.5t-110.5 28.5t-89 45 l-68 -97zM469 438q0 -110 4 -129q17 -61 102 -61q73 0 92 32t19 91v383zM469 688l217 316q0 98 -2 114q-14 72 -104 72q-66 0 -88.5 -34t-22.5 -91v-377z" />
<glyph unicode="&#xd9;" horiz-adv-x="1151" d="M63 367v1081h406v-1063q0 -49 18 -84t86 -35q66 0 84.5 34t18.5 83v1065h407v-1057q0 -66 -3 -107t-20 -87.5t-54 -86t-103 -73.5q-111 -57 -328 -57q-234 0 -347 63t-139 142.5t-26 181.5zM223 1794h391l127 -227h-307z" />
<glyph unicode="&#xda;" horiz-adv-x="1151" d="M63 367v1081h406v-1063q0 -49 18 -84t86 -35q66 0 84.5 34t18.5 83v1065h407v-1057q0 -66 -3 -107t-20 -87.5t-54 -86t-103 -73.5q-111 -57 -328 -57q-234 0 -347 63t-139 142.5t-26 181.5zM403 1567l125 227h392l-211 -227h-306z" />
<glyph unicode="&#xdb;" horiz-adv-x="1151" d="M63 367v1081h406v-1063q0 -49 18 -84t86 -35q66 0 84.5 34t18.5 83v1065h407v-1057q0 -66 -3 -107t-20 -87.5t-54 -86t-103 -73.5q-111 -57 -328 -57q-234 0 -347 63t-139 142.5t-26 181.5zM215 1552l158 224h413l154 -224h-303l-62 93l-55 -93h-305z" />
<glyph unicode="&#xdc;" horiz-adv-x="1151" d="M63 367v1081h406v-1063q0 -49 18 -84t86 -35q66 0 84.5 34t18.5 83v1065h407v-1057q0 -66 -3 -107t-20 -87.5t-54 -86t-103 -73.5q-111 -57 -328 -57q-234 0 -347 63t-139 142.5t-26 181.5zM160 1552v228h340v-228h-340zM643 1552v228h338v-228h-338z" />
<glyph unicode="&#xdd;" horiz-adv-x="1151" d="M2 1446h401l175 -627l170 627h395l-361 -981v-465h-401v465zM403 1567l125 227h392l-211 -227h-306z" />
<glyph unicode="&#xde;" horiz-adv-x="1110" d="M72 0v1448h405v-242h213q71 0 131 -8.5t120.5 -44t94.5 -109.5q23 -47 30 -117.5t7 -236.5q0 -121 -16.5 -184.5t-57.5 -114.5q-37 -47 -90 -71t-115 -31.5t-159 -7.5h-158v-281h-405zM477 557h103q43 0 65.5 12.5t29.5 36.5t7 68v149q0 64 -25 84.5t-77 20.5h-103v-371z " />
<glyph unicode="&#xdf;" d="M61 0v1104q0 91 23.5 167t125.5 137.5t310 61.5q143 0 249.5 -28.5t166 -95.5t59.5 -177v-159q0 -83 -27.5 -130t-115.5 -77q105 -36 141.5 -90.5t36.5 -163.5v-230q0 -94 -16 -160.5t-86 -116.5t-215 -50q-51 0 -193 10v156q82 0 110.5 18.5t28.5 93.5v322q0 72 -28 88 t-111 16v222q56 0 80.5 16t24.5 72v131q0 45 -15 75.5t-73 30.5q-59 0 -75 -26.5t-16 -65.5v-1151h-385z" />
<glyph unicode="&#xe0;" d="M43 270q0 97 17.5 156.5t56.5 97t105.5 62.5t180.5 53q144 33 211 63q0 86 -3 107t-17 37q-21 20 -66 20q-38 0 -56 -16.5t-22 -46.5t-4 -90h-358q0 102 6 155.5t33.5 98.5t91.5 82q114 67 332 67q143 0 235 -29q139 -43 177 -124t38 -185v-639q0 -58 10.5 -83t41.5 -56 h-439v96q-70 -57 -136 -90t-169 -33q-99 0 -172 45q-60 41 -77 98t-17 154zM160 1425h416l159 -251h-309zM430 367q0 -109 4 -123q13 -60 82 -60q64 0 81 29.5t17 73.5v237q-86 -33 -122.5 -51t-49 -40t-12.5 -66z" />
<glyph unicode="&#xe1;" d="M43 270q0 97 17.5 156.5t56.5 97t105.5 62.5t180.5 53q144 33 211 63q0 86 -3 107t-17 37q-21 20 -66 20q-38 0 -56 -16.5t-22 -46.5t-4 -90h-358q0 102 6 155.5t33.5 98.5t91.5 82q114 67 332 67q143 0 235 -29q139 -43 177 -124t38 -185v-639q0 -58 10.5 -83t41.5 -56 h-439v96q-70 -57 -136 -90t-169 -33q-99 0 -172 45q-60 41 -77 98t-17 154zM393 1169l158 256h415l-268 -256h-305zM430 367q0 -109 4 -123q13 -60 82 -60q64 0 81 29.5t17 73.5v237q-86 -33 -122.5 -51t-49 -40t-12.5 -66z" />
<glyph unicode="&#xe2;" d="M43 270q0 97 17.5 156.5t56.5 97t105.5 62.5t180.5 53q144 33 211 63q0 86 -3 107t-17 37q-21 20 -66 20q-38 0 -56 -16.5t-22 -46.5t-4 -90h-358q0 102 6 155.5t33.5 98.5t91.5 82q114 67 332 67q143 0 235 -29q139 -43 177 -124t38 -185v-639q0 -58 10.5 -83t41.5 -56 h-439v96q-70 -57 -136 -90t-169 -33q-99 0 -172 45q-60 41 -77 98t-17 154zM178 1176l182 249h389l182 -249h-299l-75 108l-80 -108h-299zM430 367q0 -109 4 -123q13 -60 82 -60q64 0 81 29.5t17 73.5v237q-86 -33 -122.5 -51t-49 -40t-12.5 -66z" />
<glyph unicode="&#xe3;" d="M43 270q0 97 17.5 156.5t56.5 97t105.5 62.5t180.5 53q144 33 211 63q0 86 -3 107t-17 37q-21 20 -66 20q-38 0 -56 -16.5t-22 -46.5t-4 -90h-358q0 102 6 155.5t33.5 98.5t91.5 82q114 67 332 67q143 0 235 -29q139 -43 177 -124t38 -185v-639q0 -58 10.5 -83t41.5 -56 h-439v96q-70 -57 -136 -90t-169 -33q-99 0 -172 45q-60 41 -77 98t-17 154zM196 1182q4 149 80.5 195t149.5 46q55 0 155 -26q55 -15 81.5 -22t40 -10t28.5 -3q54 0 65 57h113q-2 -51 -10 -88.5t-31 -70.5q-59 -86 -180 -86q-43 0 -75 6.5t-126 33.5q-73 25 -100 25 q-31 0 -46 -16t-24 -41h-121zM430 367q0 -109 4 -123q13 -60 82 -60q64 0 81 29.5t17 73.5v237q-86 -33 -122.5 -51t-49 -40t-12.5 -66z" />
<glyph unicode="&#xe4;" d="M43 270q0 97 17.5 156.5t56.5 97t105.5 62.5t180.5 53q144 33 211 63q0 86 -3 107t-17 37q-21 20 -66 20q-38 0 -56 -16.5t-22 -46.5t-4 -90h-358q0 102 6 155.5t33.5 98.5t91.5 82q114 67 332 67q143 0 235 -29q139 -43 177 -124t38 -185v-639q0 -58 10.5 -83t41.5 -56 h-439v96q-70 -57 -136 -90t-169 -33q-99 0 -172 45q-60 41 -77 98t-17 154zM127 1174v249h350v-249h-350zM430 367q0 -109 4 -123q13 -60 82 -60q64 0 81 29.5t17 73.5v237q-86 -33 -122.5 -51t-49 -40t-12.5 -66zM616 1174v249h352v-249h-352z" />
<glyph unicode="&#xe5;" d="M43 270q0 97 17.5 156.5t56.5 97t105.5 62.5t180.5 53q144 33 211 63q0 86 -3 107t-17 37q-21 20 -66 20q-38 0 -56 -16.5t-22 -46.5t-4 -90h-358q0 102 6 155.5t33.5 98.5t91.5 82q114 67 332 67q143 0 235 -29q139 -43 177 -124t38 -185v-639q0 -58 10.5 -83t41.5 -56 h-439v96q-70 -57 -136 -90t-169 -33q-99 0 -172 45q-60 41 -77 98t-17 154zM338 1362q0 90 61.5 151.5t146.5 61.5q56 0 105.5 -28.5t77.5 -77t28 -105.5t-28 -104.5t-76.5 -76t-106.5 -28.5q-89 0 -147 62q-61 61 -61 145zM430 367q0 -109 4 -123q13 -60 82 -60 q64 0 81 29.5t17 73.5v237q-86 -33 -122.5 -51t-49 -40t-12.5 -66zM481 1364q0 -26 21 -46t47 -20q25 0 45 20t20 46q0 28 -20 48t-45 20q-26 0 -47 -20t-21 -48z" />
<glyph unicode="&#xe6;" horiz-adv-x="1579" d="M39 264q0 108 12.5 167.5t47 96t96.5 59t174 46.5q121 28 148.5 35t90.5 28v84q0 94 -88 94q-41 0 -63 -22q-16 -19 -18.5 -39t-2.5 -98h-358q0 91 1 119t5 47q25 123 134 178t269 55q133 0 198.5 -31t113.5 -77q57 53 122 80.5t203 27.5q181 0 287 -67 q80 -52 102.5 -126.5t22.5 -191.5v-240h-549v-157q0 -49 16.5 -80t77.5 -31q49 0 72 29q13 18 15.5 40.5t2.5 96.5h365q0 -111 -2 -135q-15 -173 -159 -225t-294 -52q-87 0 -194 17q-113 21 -160 53.5t-84 79.5q-74 -70 -149.5 -112t-192.5 -42q-118 0 -175.5 45t-72 106.5 t-14.5 141.5zM420 315q0 -52 15.5 -87t70.5 -35q102 0 102 124v209q-106 -41 -138.5 -59t-41 -46.5t-8.5 -105.5zM987 657h184v127q0 103 -88 103q-96 0 -96 -99v-131z" />
<glyph unicode="&#xe7;" horiz-adv-x="1024" d="M47 324v424q0 92 23.5 168.5t123.5 138t304 61.5q142 0 235 -29q152 -45 193 -127t41 -174v-114h-369v108q0 39 -15 63.5t-69 24.5q-52 0 -67 -25t-15 -63v-456q0 -46 17 -72.5t65 -26.5q45 0 68 25q12 16 14 36t2 107h381q0 -107 -7 -163.5t-39 -106t-102 -88.5 q-63 -32 -111 -41.5t-132 -16.5l-39 -47q95 0 141.5 -34t46.5 -109q0 -90 -85 -153.5t-236 -63.5q-38 0 -76 6l-35 107q43 -13 68 -13q40 0 70 16.5t30 55.5q0 31 -18.5 50.5t-48.5 19.5q-33 0 -82 -31l-45 90l108 113q-154 20 -230 80t-93 123.5t-17 136.5z" />
<glyph unicode="&#xe8;" horiz-adv-x="1024" d="M47 350v375q0 96 13 163t56.5 118.5t137.5 81.5t248 30q62 0 116.5 -4.5t109 -16.5t99.5 -34q70 -33 105 -84t43 -99.5t8 -113.5v-279h-547v-161q0 -45 16.5 -76t73.5 -31q43 0 60.5 16t21.5 45.5t4 98.5h371q0 -88 -5 -138t-26.5 -95.5t-68.5 -84.5q-38 -30 -83.5 -48.5 t-112 -28t-169.5 -9.5q-212 0 -315 52t-129.5 129.5t-26.5 193.5zM140 1425h416l159 -251h-309zM436 662h182v133q0 94 -90 94q-60 0 -76 -28t-16 -68v-131z" />
<glyph unicode="&#xe9;" horiz-adv-x="1024" d="M47 350v375q0 96 13 163t56.5 118.5t137.5 81.5t248 30q62 0 116.5 -4.5t109 -16.5t99.5 -34q70 -33 105 -84t43 -99.5t8 -113.5v-279h-547v-161q0 -45 16.5 -76t73.5 -31q43 0 60.5 16t21.5 45.5t4 98.5h371q0 -88 -5 -138t-26.5 -95.5t-68.5 -84.5q-38 -30 -83.5 -48.5 t-112 -28t-169.5 -9.5q-212 0 -315 52t-129.5 129.5t-26.5 193.5zM373 1169l158 256h415l-268 -256h-305zM436 662h182v133q0 94 -90 94q-60 0 -76 -28t-16 -68v-131z" />
<glyph unicode="&#xea;" horiz-adv-x="1024" d="M47 350v375q0 96 13 163t56.5 118.5t137.5 81.5t248 30q62 0 116.5 -4.5t109 -16.5t99.5 -34q70 -33 105 -84t43 -99.5t8 -113.5v-279h-547v-161q0 -45 16.5 -76t73.5 -31q43 0 60.5 16t21.5 45.5t4 98.5h371q0 -88 -5 -138t-26.5 -95.5t-68.5 -84.5q-38 -30 -83.5 -48.5 t-112 -28t-169.5 -9.5q-212 0 -315 52t-129.5 129.5t-26.5 193.5zM158 1176l182 249h389l182 -249h-299l-75 108l-80 -108h-299zM436 662h182v133q0 94 -90 94q-60 0 -76 -28t-16 -68v-131z" />
<glyph unicode="&#xeb;" horiz-adv-x="1024" d="M47 350v375q0 96 13 163t56.5 118.5t137.5 81.5t248 30q62 0 116.5 -4.5t109 -16.5t99.5 -34q70 -33 105 -84t43 -99.5t8 -113.5v-279h-547v-161q0 -45 16.5 -76t73.5 -31q43 0 60.5 16t21.5 45.5t4 98.5h371q0 -88 -5 -138t-26.5 -95.5t-68.5 -84.5q-38 -30 -83.5 -48.5 t-112 -28t-169.5 -9.5q-212 0 -315 52t-129.5 129.5t-26.5 193.5zM115 1176v249h350v-249h-350zM436 662h182v133q0 94 -90 94q-60 0 -76 -28t-16 -68v-131zM604 1176v249h352v-249h-352z" />
<glyph unicode="&#xec;" horiz-adv-x="512" d="M-139 1425h416l159 -251h-309zM61 0v1092h388v-1092h-388z" />
<glyph unicode="&#xed;" horiz-adv-x="512" d="M61 0v1092h388v-1092h-388zM94 1169l158 256h415l-268 -256h-305z" />
<glyph unicode="&#xee;" horiz-adv-x="512" d="M-121 1176l182 249h389l182 -249h-299l-75 108l-80 -108h-299zM61 0v1092h388v-1092h-388z" />
<glyph unicode="&#xef;" horiz-adv-x="512" d="M-163 1176v249h350v-249h-350zM61 0v1092h388v-1092h-388zM326 1176v249h352v-249h-352z" />
<glyph unicode="&#xf0;" d="M51 330v440q0 95 18 152t66 98q58 51 133 73.5t158 22.5q81 0 127.5 -22.5t89.5 -73.5q-20 112 -90 197l-285 -60l-51 127l232 51q-21 19 -78 64l317 100q51 -48 94 -94l181 39l53 -133l-139 -29q32 -33 67 -109t47 -137q23 -101 23 -270v-418q0 -111 -22.5 -184.5 t-108.5 -124.5q-105 -64 -324 -64q-198 0 -308 35t-155 111t-45 209zM434 338q0 -52 17 -83.5t84 -31.5q63 0 79.5 31.5t16.5 87.5v418q0 44 -18 75t-81 31q-62 0 -80 -29t-18 -71v-428z" />
<glyph unicode="&#xf1;" d="M61 0v1092h388v-109q39 51 98.5 91t159.5 40q160 0 239 -108q35 -47 45 -106.5t10 -156.5v-743h-389v780q0 42 -13 72.5t-64 30.5q-55 0 -70.5 -31t-15.5 -72v-780h-388zM174 1182q4 149 80.5 195t149.5 46q55 0 155 -26q55 -15 81.5 -22t40 -10t28.5 -3q54 0 65 57h113 q-2 -51 -10 -88.5t-31 -70.5q-59 -86 -180 -86q-43 0 -75 6.5t-126 33.5q-73 25 -100 25q-31 0 -46 -16t-24 -41h-121z" />
<glyph unicode="&#xf2;" d="M51 330v440q0 113 38.5 198t180.5 124q103 28 248 28q230 0 338 -54t133 -126t25 -174v-418q0 -111 -22.5 -184.5t-108.5 -124.5q-67 -41 -151.5 -52.5t-172.5 -11.5q-148 0 -230 15.5t-139 46.5q-87 47 -113 118.5t-26 174.5zM137 1425h416l159 -251h-309zM434 338 q0 -49 17.5 -82t83.5 -33q44 0 65 18t26 42t5 59v418q0 44 -19 75t-80 31q-62 0 -80 -29.5t-18 -70.5v-428z" />
<glyph unicode="&#xf3;" d="M51 330v440q0 113 38.5 198t180.5 124q103 28 248 28q230 0 338 -54t133 -126t25 -174v-418q0 -111 -22.5 -184.5t-108.5 -124.5q-67 -41 -151.5 -52.5t-172.5 -11.5q-148 0 -230 15.5t-139 46.5q-87 47 -113 118.5t-26 174.5zM371 1169l158 256h415l-268 -256h-305z M434 338q0 -49 17.5 -82t83.5 -33q44 0 65 18t26 42t5 59v418q0 44 -19 75t-80 31q-62 0 -80 -29.5t-18 -70.5v-428z" />
<glyph unicode="&#xf4;" d="M51 330v440q0 113 38.5 198t180.5 124q103 28 248 28q230 0 338 -54t133 -126t25 -174v-418q0 -111 -22.5 -184.5t-108.5 -124.5q-67 -41 -151.5 -52.5t-172.5 -11.5q-148 0 -230 15.5t-139 46.5q-87 47 -113 118.5t-26 174.5zM156 1176l182 249h389l182 -249h-299 l-75 108l-80 -108h-299zM434 338q0 -49 17.5 -82t83.5 -33q44 0 65 18t26 42t5 59v418q0 44 -19 75t-80 31q-62 0 -80 -29.5t-18 -70.5v-428z" />
<glyph unicode="&#xf5;" d="M51 330v440q0 113 38.5 198t180.5 124q103 28 248 28q230 0 338 -54t133 -126t25 -174v-418q0 -111 -22.5 -184.5t-108.5 -124.5q-67 -41 -151.5 -52.5t-172.5 -11.5q-148 0 -230 15.5t-139 46.5q-87 47 -113 118.5t-26 174.5zM174 1182q4 149 80.5 195t149.5 46 q55 0 155 -26q55 -15 81.5 -22t40 -10t28.5 -3q54 0 65 57h113q-2 -51 -10 -88.5t-31 -70.5q-59 -86 -180 -86q-43 0 -75 6.5t-126 33.5q-73 25 -100 25q-31 0 -46 -16t-24 -41h-121zM434 338q0 -49 17.5 -82t83.5 -33q44 0 65 18t26 42t5 59v418q0 44 -19 75t-80 31 q-62 0 -80 -29.5t-18 -70.5v-428z" />
<glyph unicode="&#xf6;" d="M51 330v440q0 113 38.5 198t180.5 124q103 28 248 28q230 0 338 -54t133 -126t25 -174v-418q0 -111 -22.5 -184.5t-108.5 -124.5q-67 -41 -151.5 -52.5t-172.5 -11.5q-148 0 -230 15.5t-139 46.5q-87 47 -113 118.5t-26 174.5zM111 1178v249h350v-249h-350zM434 338 q0 -49 17.5 -82t83.5 -33q44 0 65 18t26 42t5 59v418q0 44 -19 75t-80 31q-62 0 -80 -29.5t-18 -70.5v-428zM600 1178v249h352v-249h-352z" />
<glyph unicode="&#xf7;" horiz-adv-x="1024" d="M2 465v260h1022v-260h-1022zM348 225q0 44 21.5 83t60 62t84.5 23q69 0 116.5 -50t47.5 -120q0 -38 -20.5 -75.5t-58 -61t-87.5 -23.5q-66 0 -115 47t-49 115zM348 958q0 73 49 120.5t115 47.5q71 0 118.5 -48.5t47.5 -119.5q0 -69 -50 -115t-118 -46q-62 0 -112 46.5 t-50 114.5z" />
<glyph unicode="&#xf8;" d="M16 61l70 86q-20 44 -26.5 78.5t-6.5 110.5v409q0 109 25 177.5t102 115.5q120 74 338 74q133 0 203 -18t145 -56l72 80l94 -80l-67 -82q24 -41 34.5 -80.5t10.5 -125.5v-359q0 -99 -9.5 -158.5t-41 -107t-93.5 -80.5q-64 -34 -147 -49.5t-176 -15.5q-138 0 -213.5 21.5 t-149.5 59.5l-69 -79zM426 338q0 -58 1 -72.5t5 -25.5q13 -56 96 -56q72 0 91.5 35t19.5 90v277zM426 535l213 243q0 60 -17.5 94.5t-86.5 34.5q-48 0 -72.5 -18t-30.5 -41.5t-6 -56.5v-256z" />
<glyph unicode="&#xf9;" d="M63 322v770h386v-793q0 -47 14 -78t67 -31q52 0 68 31.5t16 77.5v793h387v-1092h-387v111q-49 -61 -108.5 -98.5t-165.5 -37.5q-97 0 -155 39t-83.5 94.5t-32 107t-6.5 106.5zM137 1425h416l159 -251h-309z" />
<glyph unicode="&#xfa;" d="M63 322v770h386v-793q0 -47 14 -78t67 -31q52 0 68 31.5t16 77.5v793h387v-1092h-387v111q-49 -61 -108.5 -98.5t-165.5 -37.5q-97 0 -155 39t-83.5 94.5t-32 107t-6.5 106.5zM371 1169l158 256h415l-268 -256h-305z" />
<glyph unicode="&#xfb;" d="M63 322v770h386v-793q0 -47 14 -78t67 -31q52 0 68 31.5t16 77.5v793h387v-1092h-387v111q-49 -61 -108.5 -98.5t-165.5 -37.5q-97 0 -155 39t-83.5 94.5t-32 107t-6.5 106.5zM156 1176l182 249h389l182 -249h-299l-75 108l-80 -108h-299z" />
<glyph unicode="&#xfc;" d="M63 322v770h386v-793q0 -47 14 -78t67 -31q52 0 68 31.5t16 77.5v793h387v-1092h-387v111q-49 -61 -108.5 -98.5t-165.5 -37.5q-97 0 -155 39t-83.5 94.5t-32 107t-6.5 106.5zM107 1176v249h350v-249h-350zM596 1176v249h352v-249h-352z" />
<glyph unicode="&#xfd;" horiz-adv-x="1024" d="M0 1090h385l131 -662l127 662h379l-303 -1078q-39 -137 -66 -202.5t-69 -112.5q-70 -76 -150.5 -95.5t-193.5 -19.5h-170l10 240q108 0 138 4t58 24q20 15 37 43.5t17 43.5zM352 1169l158 256h415l-268 -256h-305z" />
<glyph unicode="&#xfe;" d="M61 -344v1790h388v-485q17 34 31 54.5t42 41.5q76 57 191 57q95 0 157 -29q96 -43 121 -112.5t25 -159.5v-496q0 -72 -6 -116.5t-25 -83.5q-65 -142 -264 -142q-82 0 -138 22.5t-83.5 51.5t-53.5 70v-463h-385zM446 309q0 -39 16.5 -69.5t74.5 -30.5q59 0 75.5 28.5 t16.5 73.5v463q0 44 -15.5 72t-74.5 28q-62 0 -77.5 -29t-15.5 -75v-461z" />
<glyph unicode="&#xff;" horiz-adv-x="1024" d="M0 1090h385l131 -662l127 662h379l-303 -1078q-39 -137 -66 -202.5t-69 -112.5q-70 -76 -150.5 -95.5t-193.5 -19.5h-170l10 240q108 0 138 4t58 24q20 15 37 43.5t17 43.5zM95 1176v249h350v-249h-350zM584 1176v249h352v-249h-352z" />
<glyph unicode="&#x152;" horiz-adv-x="1493" d="M57 451v598q0 123 13 191t57 122q94 108 285 108q103 0 160 -22.5t102 -54.5v55h782v-287h-377v-287h348v-278h-348v-317h377v-279h-784v61q-84 -81 -242 -81q-61 0 -119 12t-102.5 36t-79.5 66q-43 56 -57.5 132.5t-14.5 224.5zM469 328q0 -49 18 -82t80 -33q71 0 91 35 t20 90v764q0 56 -19.5 90.5t-91.5 34.5q-61 0 -79.5 -34.5t-18.5 -88.5v-776z" />
<glyph unicode="&#x153;" horiz-adv-x="1579" d="M51 358v398q0 83 18 147t91 119q40 31 97.5 51t116 27.5t99.5 7.5q127 0 196.5 -31t129.5 -80q55 52 122.5 84.5t200.5 32.5q81 0 163 -18.5t145 -65.5q42 -33 65.5 -74.5t31 -88.5t7.5 -115v-265h-547v-159q0 -49 15.5 -81t70.5 -32q46 0 66 18.5t24 49.5t4 98h367 q0 -115 -7.5 -173t-40 -103t-106.5 -80q-103 -50 -243 -50q-136 0 -208 32t-130 85q-35 -33 -71.5 -57.5t-99.5 -45t-151 -20.5q-195 0 -288.5 63.5t-115.5 143.5t-22 182zM430 322q0 -42 15.5 -73.5t70.5 -31.5q57 0 71.5 30.5t14.5 76.5v444q0 42 -14.5 70t-71.5 28 q-55 0 -70.5 -26.5t-15.5 -69.5v-448zM987 657h180v125q0 42 -16 70.5t-78 28.5q-56 0 -71 -29t-15 -70v-125z" />
<glyph unicode="&#x178;" horiz-adv-x="1151" d="M2 1446h401l175 -627l170 627h395l-361 -981v-465h-401v465zM164 1548v228h340v-228h-340zM647 1548v228h338v-228h-338z" />
<glyph unicode="&#x2c6;" horiz-adv-x="555" d="M-98 1176l182 249h389l182 -249h-299l-75 108l-80 -108h-299z" />
<glyph unicode="&#x2dc;" horiz-adv-x="555" d="M-78 1182q4 149 80.5 195t149.5 46q55 0 155 -26q55 -15 81.5 -22t40 -10t28.5 -3q54 0 65 57h113q-2 -51 -10 -88.5t-31 -70.5q-59 -86 -180 -86q-43 0 -75 6.5t-126 33.5q-73 25 -100 25q-31 0 -46 -16t-24 -41h-121z" />
<glyph unicode="&#x2000;" horiz-adv-x="951" />
<glyph unicode="&#x2001;" horiz-adv-x="1903" />
<glyph unicode="&#x2002;" horiz-adv-x="951" />
<glyph unicode="&#x2003;" horiz-adv-x="1903" />
<glyph unicode="&#x2004;" horiz-adv-x="634" />
<glyph unicode="&#x2005;" horiz-adv-x="475" />
<glyph unicode="&#x2006;" horiz-adv-x="317" />
<glyph unicode="&#x2007;" horiz-adv-x="317" />
<glyph unicode="&#x2008;" horiz-adv-x="237" />
<glyph unicode="&#x2009;" horiz-adv-x="380" />
<glyph unicode="&#x200a;" horiz-adv-x="105" />
<glyph unicode="&#x2010;" horiz-adv-x="682" d="M33 590v264h618v-264h-618z" />
<glyph unicode="&#x2011;" horiz-adv-x="682" d="M33 590v264h618v-264h-618z" />
<glyph unicode="&#x2012;" horiz-adv-x="682" d="M33 590v264h618v-264h-618z" />
<glyph unicode="&#x2013;" d="M33 588v266h997v-266h-997z" />
<glyph unicode="&#x2014;" horiz-adv-x="1194" d="M35 590v264h1124v-264h-1124z" />
<glyph unicode="&#x2018;" horiz-adv-x="512" d="M78 803v332l184 311h131l-106 -311h143v-332h-352z" />
<glyph unicode="&#x2019;" horiz-adv-x="512" d="M76 1108v338h358v-338l-178 -315h-129l94 315h-145z" />
<glyph unicode="&#x201a;" horiz-adv-x="512" d="M76 0v338h358v-338l-178 -315h-129l94 315h-145z" />
<glyph unicode="&#x201c;" horiz-adv-x="938" d="M70 797v331l190 318h131l-108 -318h147v-331h-360zM502 797v331l196 318h136l-115 -318h145v-331h-362z" />
<glyph unicode="&#x201d;" horiz-adv-x="938" d="M70 1114v334h362v-334l-176 -315h-137l106 315h-155zM502 1114v334h362v-334l-182 -315h-137l108 315h-151z" />
<glyph unicode="&#x201e;" horiz-adv-x="938" d="M70 0v336h360v-336l-194 -315h-136l115 315h-145zM502 0v336h360v-336l-188 -315h-133l108 315h-147z" />
<glyph unicode="&#x2022;" horiz-adv-x="682" d="M25 725q0 81 42 153.5t116.5 117t162.5 44.5q85 0 157 -40.5t114 -113.5t42 -165q0 -54 -17 -108t-56.5 -103.5t-99.5 -78t-142 -28.5q-92 0 -165 45t-113.5 119.5t-40.5 157.5z" />
<glyph unicode="&#x2026;" horiz-adv-x="2048" d="M162 0v336h356v-336h-356zM844 0v336h356v-336h-356zM1526 0v336h356v-336h-356z" />
<glyph unicode="&#x202f;" horiz-adv-x="380" />
<glyph unicode="&#x2039;" horiz-adv-x="383" d="M23 451v301l323 264v-318l-125 -98l125 -102v-312z" />
<glyph unicode="&#x203a;" horiz-adv-x="383" d="M31 178v314l125 102l-125 104v316l327 -271v-297z" />
<glyph unicode="&#x205f;" horiz-adv-x="475" />
<glyph unicode="&#x2122;" horiz-adv-x="1409" d="M2 1309v137h586v-137h-205v-543h-172v543h-209zM643 766v680h217l156 -492l145 492h219v-680h-168l9 362l10 138l-27 -109l-117 -391h-151l-121 393l-29 105l13 -136l10 -362h-166z" />
<glyph unicode="&#x25fc;" horiz-adv-x="1090" d="M0 0v1090h1090v-1090h-1090z" />
</font>
</defs>
</svg>
